<?xml version="1.0" encoding="UTF-8" standalone="no"?>
<!DOCTYPE svg PUBLIC "-//W3C//DTD SVG 1.1//EN" "http://www.w3.org/Graphics/SVG/1.1/DTD/svg11.dtd">
<svg width="100%" height="100%" viewBox="0 0 117 96" version="1.1" xmlns="http://www.w3.org/2000/svg" xmlns:xlink="http://www.w3.org/1999/xlink" xml:space="preserve" xmlns:serif="http://www.serif.com/" style="fill-rule:evenodd;clip-rule:evenodd;stroke-linejoin:round;stroke-miterlimit:2;">
    <g transform="matrix(1,0,0,1,-36.1643,-19.6556)">
        <path d="M132.088,115.574L146.087,115.574L146.087,51.567L142.211,52.846L142.211,65.873L136.713,68.918L136.713,108.279L132.088,108.238L132.088,115.574Z" style="fill:rgb(179,179,178);"/>
        <path d="M93.967,19.656L128.187,31.276L128.187,65.167L132.088,68.735L132.088,115.574L93.967,115.574L93.967,19.656" style="fill:rgb(179,179,178);"/>
        <path d="M93.967,19.656L93.967,76.403L122.148,64.531L122.148,115.574L73.607,115.574L73.607,29.222L93.967,19.656Z" style="fill:rgb(228,226,226);"/>
        <path d="M73.607,115.574L73.607,57.388L60.301,51.567L60.301,115.574L73.607,115.574" style="fill:rgb(179,179,178);"/>
        <path d="M60.301,115.574L60.301,51.567L46.389,55.983L46.389,115.574L60.301,115.574" style="fill:rgb(228,226,226);"/>
        <path d="M48.224,115.574L36.164,115.574L36.164,79.599L48.224,72.975L48.224,115.574Z" style="fill:rgb(228,226,226);"/>
        <path d="M48.224,72.975L56.052,74.287L56.052,115.574L48.224,115.574L48.224,72.975Z" style="fill:rgb(179,179,178);"/>
        <path d="M146.087,51.567L152.341,56.372L152.341,115.574L146.087,115.574L146.087,51.567Z" style="fill:rgb(228,226,226);"/>
    </g>
</svg>
