<?xml version="1.0" encoding="UTF-8" standalone="no"?>
<!DOCTYPE svg PUBLIC "-//W3C//DTD SVG 1.1//EN" "http://www.w3.org/Graphics/SVG/1.1/DTD/svg11.dtd">
<svg width="100%" height="100%" viewBox="0 0 1400 1568" version="1.1" xmlns="http://www.w3.org/2000/svg" xmlns:xlink="http://www.w3.org/1999/xlink" xml:space="preserve" xmlns:serif="http://www.serif.com/" style="fill-rule:evenodd;clip-rule:evenodd;stroke-linejoin:round;stroke-miterlimit:2;">
    <g>
        <g>
            <path d="M1273.4,391.3C1273.4,367.1 1253.8,347.6 1229.7,347.6L170.3,347.6C146.1,347.6 126.6,367.2 126.6,391.3L126.6,657.1C126.6,681.3 146.2,700.8 170.3,700.8L1229.7,700.8C1253.9,700.8 1273.4,681.2 1273.4,657.1L1273.4,391.3Z" style="fill:rgb(140,125,77);fill-rule:nonzero;"/>
            <path d="M1229.7,704L170.3,704C144.5,704 123.4,683 123.4,657.1L123.4,391.3C123.4,365.5 144.4,344.4 170.3,344.4L1229.7,344.4C1255.5,344.4 1276.6,365.4 1276.6,391.3L1276.6,657.1C1276.6,683 1255.5,704 1229.7,704ZM170.3,350.7C147.9,350.7 129.7,368.9 129.7,391.3L129.7,657.1C129.7,679.5 147.9,697.7 170.3,697.7L1229.7,697.7C1252.1,697.7 1270.3,679.5 1270.3,657.1L1270.3,391.3C1270.3,368.9 1252.1,350.7 1229.7,350.7L170.3,350.7Z" style="fill-rule:nonzero;"/>
        </g>
        <g>
            <rect x="175.7" y="609.4" width="1052.4" height="46.7" style="fill:rgb(125,112,68);"/>
        </g>
        <g>
            <rect x="175.7" y="503" width="1052.4" height="46.7" style="fill:rgb(125,112,68);"/>
        </g>
        <g>
            <rect x="175.7" y="396.5" width="1052.4" height="46.7" style="fill:rgb(125,112,68);"/>
        </g>
        <g>
            <g>
                <g>
                    <path d="M875.1,213.9C875.1,169.9 849.7,131.8 812.8,113.5L812.8,219L763,247.7L713.3,219L713.3,113.5C676.4,131.8 651,169.9 651,213.9C651,258.1 676.6,296.3 713.8,314.5L713.8,590C713.8,613.6 733,632.8 756.6,632.8L769.5,632.8C793.1,632.8 812.3,613.6 812.3,590L812.3,314.5C849.5,296.3 875.1,258.1 875.1,213.9Z" style="fill:rgb(241,242,242);fill-rule:nonzero;"/>
                    <path d="M769.5,635.9L756.6,635.9C731.3,635.9 710.7,615.3 710.7,590L710.7,316.5C671.9,296.7 647.9,257.6 647.9,213.9C647.9,169.8 672.5,130.3 712,110.7C713,110.2 714.1,110.3 715,110.8C715.9,111.4 716.5,112.4 716.5,113.5L716.5,217.2L763,244L809.6,217.1L809.6,113.5C809.6,112.4 810.2,111.4 811.1,110.8C812,110.2 813.2,110.2 814.1,110.7C853.6,130.3 878.2,169.8 878.2,213.9C878.2,257.5 854.2,296.7 815.4,316.5L815.4,590C815.4,615.3 794.8,635.9 769.5,635.9ZM710.2,118.6C675.5,137.8 654.1,173.9 654.1,213.9C654.1,255.8 677.5,293.3 715.1,311.7C716.2,312.2 716.9,313.3 716.9,314.5L716.9,590C716.9,611.9 734.7,629.7 756.6,629.7L769.5,629.7C791.4,629.7 809.2,611.9 809.2,590L809.2,314.5C809.2,313.3 809.9,312.2 811,311.7C848.7,293.2 872,255.8 872,213.9C872,173.9 850.6,137.9 815.9,118.6L815.9,219C815.9,220.1 815.3,221.1 814.3,221.7L764.6,250.4C763.6,251 762.4,251 761.5,250.4L711.8,221.7C710.8,221.1 710.2,220.1 710.2,219L710.2,118.6Z" style="fill-rule:nonzero;"/>
                </g>
                <g>
                    <path d="M781.7,586C781.7,596.3 773.3,604.7 763,604.7C752.7,604.7 744.3,596.3 744.3,586C744.3,575.7 752.7,567.3 763,567.3C773.4,567.4 781.7,575.7 781.7,586Z" style="fill:rgb(140,125,77);fill-rule:nonzero;"/>
                    <path d="M763,607.8C751,607.8 741.2,598 741.2,586C741.2,574 751,564.2 763,564.2C775,564.2 784.8,574 784.8,586C784.8,598.1 775.1,607.8 763,607.8ZM763,570.5C754.4,570.5 747.4,577.5 747.4,586C747.4,594.6 754.4,601.6 763,601.6C771.6,601.6 778.6,594.6 778.6,586C778.6,577.5 771.6,570.5 763,570.5Z" style="fill-rule:nonzero;"/>
                </g>
            </g>
            <g>
                <g>
                    <path d="M1068.5,288.2C1068.5,252 1047.6,220.7 1017.2,205.6L1017.2,292.3L976.3,316L935.4,292.4L935.4,205.7C905,220.8 884.1,252.1 884.1,288.3C884.1,324.7 905.2,356.1 935.7,371.1L935.7,597.6C935.7,617 951.5,632.8 970.9,632.8L981.5,632.8C1000.9,632.8 1016.7,617.1 1016.7,597.6L1016.7,371C1047.4,356 1068.5,324.6 1068.5,288.2Z" style="fill:rgb(241,242,242);fill-rule:nonzero;"/>
                    <path d="M981.7,635.9L971,635.9C949.9,635.9 932.7,618.7 932.7,597.6L932.7,373C900.8,356.6 881.1,324.3 881.1,288.3C881.1,251.8 901.4,219.1 934.1,202.9C935.1,202.4 936.2,202.5 937.1,203C938,203.6 938.6,204.6 938.6,205.7L938.6,290.6L976.4,312.4L1014.2,290.6L1014.2,205.7C1014.2,204.6 1014.8,203.6 1015.7,203C1016.6,202.4 1017.8,202.4 1018.7,202.9C1051.4,219.1 1071.7,251.8 1071.7,288.3C1071.7,324.3 1052,356.6 1020,373L1020,597.6C1020,618.7 1002.8,635.9 981.7,635.9ZM932.3,210.8C904.4,226.6 887.3,255.9 887.3,288.2C887.3,322.4 906.4,353.1 937.2,368.2C938.3,368.7 939,369.8 939,371L939,597.5C939,615.2 953.4,629.6 971.1,629.6L981.7,629.6C999.4,629.6 1013.8,615.2 1013.8,597.5L1013.8,371C1013.8,369.8 1014.5,368.7 1015.6,368.2C1046.4,353.1 1065.5,322.5 1065.5,288.2C1065.5,255.8 1048.4,226.6 1020.5,210.8L1020.5,292.4C1020.5,293.5 1019.9,294.5 1018.9,295.1L978,318.7C977,319.3 975.8,319.3 974.9,318.7L934,295.1C933,294.5 932.4,293.5 932.4,292.4L932.4,210.8L932.3,210.8Z" style="fill-rule:nonzero;"/>
                </g>
                <g>
                    <path d="M991.7,594.3C991.7,602.8 984.8,609.7 976.3,609.7C967.8,609.7 960.9,602.8 960.9,594.3C960.9,585.8 967.8,578.9 976.3,578.9C984.8,579 991.7,585.9 991.7,594.3Z" style="fill:rgb(140,125,77);fill-rule:nonzero;"/>
                    <path d="M976.3,612.8C966.1,612.8 957.8,604.5 957.8,594.3C957.8,584.1 966.1,575.8 976.3,575.8C986.5,575.8 994.8,584.1 994.8,594.3C994.8,604.5 986.5,612.8 976.3,612.8ZM976.3,582.1C969.6,582.1 964.1,587.6 964.1,594.3C964.1,601 969.6,606.5 976.3,606.5C983.1,606.5 988.5,601 988.5,594.3C988.6,587.6 983.1,582.1 976.3,582.1Z" style="fill-rule:nonzero;"/>
                </g>
            </g>
            <g>
                <g>
                    <path d="M1228.1,355.5C1228.1,326.4 1211.3,301.2 1186.8,289L1186.8,358.8L1153.9,377.8L1121,358.8L1121,289C1096.5,301.1 1079.7,326.3 1079.7,355.5C1079.7,384.8 1096.6,410.1 1121.3,422.1L1121.3,604.4C1121.3,620 1134,632.7 1149.6,632.7L1158.2,632.7C1173.8,632.7 1186.5,620 1186.5,604.4L1186.5,422.1C1211.1,410.1 1228.1,384.8 1228.1,355.5Z" style="fill:rgb(241,242,242);fill-rule:nonzero;"/>
                    <path d="M1158.2,635.9L1149.6,635.9C1132.3,635.9 1118.2,621.8 1118.2,604.5L1118.2,424C1092.5,410.6 1076.6,384.5 1076.6,355.5C1076.6,325.9 1093.1,299.4 1119.6,286.2C1120.5,285.7 1121.7,285.8 1122.6,286.3C1123.5,286.9 1124.1,287.9 1124.1,289L1124.1,357L1153.9,374.2L1183.7,357L1183.7,289C1183.7,287.9 1184.3,286.9 1185.2,286.3C1186.1,285.7 1187.3,285.7 1188.2,286.2C1214.7,299.4 1231.2,325.9 1231.2,355.5C1231.2,384.6 1215.3,410.7 1189.6,424L1189.6,604.4C1189.7,621.8 1175.5,635.9 1158.2,635.9ZM1117.9,294.3C1096.2,307.1 1082.9,330.1 1082.9,355.5C1082.9,382.8 1098.2,407.3 1122.7,419.3C1123.8,419.8 1124.5,420.9 1124.5,422.1L1124.5,604.4C1124.5,618.3 1135.8,629.6 1149.7,629.6L1158.3,629.6C1172.2,629.6 1183.5,618.3 1183.5,604.4L1183.5,422.1C1183.5,420.9 1184.2,419.8 1185.3,419.3C1209.9,407.3 1225.1,382.8 1225.1,355.5C1225.1,330 1211.8,307 1190.1,294.3L1190.1,358.9C1190.1,360 1189.5,361 1188.5,361.6L1155.6,380.6C1154.6,381.2 1153.4,381.2 1152.5,380.6L1119.6,361.6C1118.6,361 1118,360 1118,358.9L1118,294.3L1117.9,294.3Z" style="fill-rule:nonzero;"/>
                </g>
                <g>
                    <path d="M1166.3,601.8C1166.3,608.6 1160.8,614.2 1153.9,614.2C1147.1,614.2 1141.5,608.7 1141.5,601.8C1141.5,594.9 1147,589.4 1153.9,589.4C1160.8,589.5 1166.3,595 1166.3,601.8Z" style="fill:rgb(140,125,77);fill-rule:nonzero;"/>
                    <path d="M1153.9,617.3C1145.4,617.3 1138.4,610.4 1138.4,601.8C1138.4,593.3 1145.3,586.3 1153.9,586.3C1162.4,586.3 1169.4,593.2 1169.4,601.8C1169.4,610.4 1162.5,617.3 1153.9,617.3ZM1153.9,592.6C1148.8,592.6 1144.7,596.7 1144.7,601.8C1144.7,606.9 1148.8,611 1153.9,611C1159,611 1163.1,606.9 1163.1,601.8C1163.2,596.7 1159,592.6 1153.9,592.6Z" style="fill-rule:nonzero;"/>
                </g>
            </g>
        </g>
        <g>
            <path d="M492,407.5L492,620C492,633.1 502.6,643.7 515.7,643.7L574.8,643.7C587.9,643.7 598.5,633.1 598.5,620L598.5,407.5L492,407.5Z" style="fill:rgb(255,125,109);fill-rule:nonzero;"/>
            <path d="M574.8,646.8L515.7,646.8C500.9,646.8 488.9,634.8 488.9,620L488.9,407.5C488.9,405.8 490.3,404.4 492,404.4L598.4,404.4C600.1,404.4 601.5,405.8 601.5,407.5L601.5,620C601.5,634.8 589.5,646.8 574.8,646.8ZM495.1,410.6L495.1,620C495.1,631.3 504.3,640.5 515.6,640.5L574.7,640.5C586,640.5 595.2,631.3 595.2,620L595.2,410.6L495.1,410.6Z" style="fill-rule:nonzero;"/>
        </g>
        <g>
            <path d="M574.8,615.1L574.8,436.7" style="fill:none;fill-rule:nonzero;"/>
            <path d="M574.8,618.2C573.1,618.2 571.7,616.8 571.7,615.1L571.7,436.7C571.7,435 573.1,433.6 574.8,433.6C576.5,433.6 577.9,435 577.9,436.7L577.9,615.1C577.9,616.8 576.5,618.2 574.8,618.2Z" style="fill-rule:nonzero;"/>
        </g>
        <g>
            <path d="M545.2,615.1L545.2,436.7" style="fill:none;fill-rule:nonzero;"/>
            <path d="M545.2,618.2C543.5,618.2 542.1,616.8 542.1,615.1L542.1,436.7C542.1,435 543.5,433.6 545.2,433.6C546.9,433.6 548.3,435 548.3,436.7L548.3,615.1C548.3,616.8 546.9,618.2 545.2,618.2Z" style="fill-rule:nonzero;"/>
        </g>
        <g>
            <path d="M515.6,615.1L515.6,436.7" style="fill:none;fill-rule:nonzero;"/>
            <path d="M515.6,618.2C513.9,618.2 512.5,616.8 512.5,615.1L512.5,436.7C512.5,435 513.9,433.6 515.6,433.6C517.3,433.6 518.7,435 518.7,436.7L518.7,615.1C518.8,616.8 517.4,618.2 515.6,618.2Z" style="fill-rule:nonzero;"/>
        </g>
        <g>
            <path d="M511.4,371.2L492.1,407.5L598.3,407.5L579,371.2L511.4,371.2Z" style="fill:rgb(255,125,109);fill-rule:nonzero;"/>
            <path d="M598.3,410.6L492.1,410.6C491,410.6 490,410 489.4,409.1C488.8,408.2 488.8,407 489.3,406L508.6,369.7C509.1,368.7 510.2,368 511.4,368L579,368C580.2,368 581.2,368.6 581.8,369.7L601,406C601.5,407 601.5,408.1 600.9,409.1C600.4,410 599.4,410.6 598.3,410.6ZM497.3,404.4L593,404.4L577,374.3L513.2,374.3L497.3,404.4Z" style="fill-rule:nonzero;"/>
        </g>
        <g>
            <rect x="530.1" y="162.7" width="30.2" height="208.5" style="fill:rgb(241,242,242);"/>
            <path d="M560.3,374.3L530.1,374.3C528.4,374.3 527,372.9 527,371.2L527,162.7C527,161 528.4,159.6 530.1,159.6L560.3,159.6C562,159.6 563.4,161 563.4,162.7L563.4,371.2C563.4,372.9 562,374.3 560.3,374.3ZM533.2,368.1L557.2,368.1L557.2,165.8L533.2,165.8L533.2,368.1Z" style="fill-rule:nonzero;"/>
        </g>
        <g>
            <path d="M530.1,162.7L560.3,162.7L574.8,117.3L560,75L530.4,75L515.6,117.3L530.1,162.7Z" style="fill:white;fill-rule:nonzero;"/>
            <path d="M560.3,165.8L530.1,165.8C528.7,165.8 527.5,164.9 527.1,163.6L512.7,118.3C512.5,117.7 512.5,117 512.7,116.3L527.5,73.9C527.9,72.6 529.1,71.8 530.4,71.8L560,71.8C561.3,71.8 562.5,72.6 562.9,73.9L577.7,116.3C577.9,116.9 577.9,117.6 577.7,118.3L563.3,163.6C562.9,164.9 561.7,165.8 560.3,165.8ZM532.4,159.6L558,159.6L571.4,117.4L557.7,78.1L532.6,78.1L518.9,117.4L532.4,159.6Z" style="fill-rule:nonzero;"/>
        </g>
        <g>
            <path d="M342.4,443.9L342.4,623.7C342.4,634.8 351.4,643.7 362.4,643.7L412.4,643.7C423.4,643.7 432.4,634.7 432.4,623.7L432.4,443.9L342.4,443.9Z" style="fill:rgb(255,125,109);fill-rule:nonzero;"/>
            <path d="M412.4,646.8L362.4,646.8C349.6,646.8 339.3,636.4 339.3,623.7L339.3,443.9C339.3,442.2 340.7,440.8 342.4,440.8L432.4,440.8C434.1,440.8 435.5,442.2 435.5,443.9L435.5,623.7C435.5,636.4 425.1,646.8 412.4,646.8ZM345.5,447L345.5,623.6C345.5,632.9 353.1,640.5 362.4,640.5L412.4,640.5C421.7,640.5 429.3,632.9 429.3,623.6L429.3,447L345.5,447Z" style="fill-rule:nonzero;"/>
        </g>
        <g>
            <path d="M412.4,619.5L412.4,468.6" style="fill:none;fill-rule:nonzero;"/>
            <path d="M412.4,622.6C410.7,622.6 409.3,621.2 409.3,619.5L409.3,468.6C409.3,466.9 410.7,465.5 412.4,465.5C414.1,465.5 415.5,466.9 415.5,468.6L415.5,619.5C415.5,621.2 414.1,622.6 412.4,622.6Z" style="fill-rule:nonzero;"/>
        </g>
        <g>
            <path d="M387.4,619.5L387.4,468.6" style="fill:none;fill-rule:nonzero;"/>
            <path d="M387.4,622.6C385.7,622.6 384.3,621.2 384.3,619.5L384.3,468.6C384.3,466.9 385.7,465.5 387.4,465.5C389.1,465.5 390.5,466.9 390.5,468.6L390.5,619.5C390.5,621.2 389.1,622.6 387.4,622.6Z" style="fill-rule:nonzero;"/>
        </g>
        <g>
            <path d="M362.4,619.5L362.4,468.6" style="fill:none;fill-rule:nonzero;"/>
            <path d="M362.4,622.6C360.7,622.6 359.3,621.2 359.3,619.5L359.3,468.6C359.3,466.9 360.7,465.5 362.4,465.5C364.1,465.5 365.5,466.9 365.5,468.6L365.5,619.5C365.5,621.2 364.1,622.6 362.4,622.6Z" style="fill-rule:nonzero;"/>
        </g>
        <g>
            <path d="M358.8,413.2L342.5,443.9L432.2,443.9L415.9,413.2L358.8,413.2Z" style="fill:rgb(255,125,109);fill-rule:nonzero;"/>
            <path d="M432.2,447L342.4,447C341.3,447 340.3,446.4 339.7,445.5C339.1,444.6 339.1,443.4 339.6,442.4L355.9,411.7C356.4,410.7 357.5,410 358.7,410L415.8,410C417,410 418,410.6 418.6,411.7L434.9,442.4C435.4,443.4 435.4,444.5 434.8,445.5C434.4,446.5 433.3,447 432.2,447ZM347.7,440.8L427,440.8L414,416.3L360.6,416.3L347.7,440.8Z" style="fill-rule:nonzero;"/>
        </g>
        <g>
            <rect x="374.6" y="149.2" width="25.6" height="264.1" style="fill:rgb(241,242,242);"/>
            <path d="M400.1,416.3L374.5,416.3C372.8,416.3 371.4,414.9 371.4,413.2L371.4,149.2C371.4,147.5 372.8,146.1 374.5,146.1L400.1,146.1C401.8,146.1 403.2,147.5 403.2,149.2L403.2,413.3C403.3,414.9 401.9,416.3 400.1,416.3ZM377.7,410.1L397,410.1L397,152.3L377.7,152.3L377.7,410.1Z" style="fill-rule:nonzero;"/>
        </g>
        <g>
            <path d="M374.6,149.2L400.1,149.2L412.4,110.8L399.9,75L374.9,75L362.4,110.8L374.6,149.2Z" style="fill:white;fill-rule:nonzero;"/>
            <path d="M400.1,152.3L374.5,152.3C373.1,152.3 371.9,151.4 371.5,150.1L359.3,111.8C359.1,111.2 359.1,110.5 359.3,109.8L371.8,73.9C372.2,72.6 373.4,71.8 374.7,71.8L399.7,71.8C401,71.8 402.2,72.6 402.6,73.9L415.1,109.8C415.3,110.4 415.3,111.1 415.1,111.8L402.9,150.1C402.7,151.4 401.5,152.3 400.1,152.3ZM376.9,146L397.9,146L409.1,110.8L397.7,78L377.1,78L365.7,110.8L376.9,146Z" style="fill-rule:nonzero;"/>
        </g>
        <g>
            <path d="M202.3,469.2L202.3,625.5C202.3,635.1 210.1,642.9 219.7,642.9L263.2,642.9C272.8,642.9 280.6,635.1 280.6,625.5L280.6,469.2L202.3,469.2Z" style="fill:rgb(255,125,109);fill-rule:nonzero;"/>
            <path d="M263.2,646L219.7,646C208.4,646 199.2,636.8 199.2,625.5L199.2,469.2C199.2,467.5 200.6,466.1 202.3,466.1L280.6,466.1C282.3,466.1 283.7,467.5 283.7,469.2L283.7,625.5C283.7,636.8 274.5,646 263.2,646ZM205.5,472.3L205.5,625.5C205.5,633.4 211.9,639.8 219.8,639.8L263.3,639.8C271.2,639.8 277.6,633.4 277.6,625.5L277.6,472.3L205.5,472.3Z" style="fill-rule:nonzero;"/>
        </g>
        <g>
            <path d="M263.2,621.9L263.2,490.7" style="fill:none;fill-rule:nonzero;"/>
            <path d="M263.2,625C261.5,625 260.1,623.6 260.1,621.9L260.1,490.7C260.1,489 261.5,487.6 263.2,487.6C264.9,487.6 266.3,489 266.3,490.7L266.3,621.9C266.4,623.6 265,625 263.2,625Z" style="fill-rule:nonzero;"/>
        </g>
        <g>
            <path d="M241.5,621.9L241.5,490.7" style="fill:none;fill-rule:nonzero;"/>
            <path d="M241.5,625C239.8,625 238.4,623.6 238.4,621.9L238.4,490.7C238.4,489 239.8,487.6 241.5,487.6C243.2,487.6 244.6,489 244.6,490.7L244.6,621.9C244.6,623.6 243.2,625 241.5,625Z" style="fill-rule:nonzero;"/>
        </g>
        <g>
            <path d="M219.7,621.9L219.7,490.7" style="fill:none;fill-rule:nonzero;"/>
            <path d="M219.7,625C218,625 216.6,623.6 216.6,621.9L216.6,490.7C216.6,489 218,487.6 219.7,487.6C221.4,487.6 222.8,489 222.8,490.7L222.8,621.9C222.9,623.6 221.5,625 219.7,625Z" style="fill-rule:nonzero;"/>
        </g>
        <g>
            <path d="M216.6,442.5L202.5,469.2L280.5,469.2L266.3,442.5L216.6,442.5Z" style="fill:rgb(255,125,109);fill-rule:nonzero;"/>
            <path d="M280.5,472.3L202.5,472.3C201.4,472.3 200.4,471.7 199.8,470.8C199.2,469.9 199.2,468.7 199.7,467.7L213.9,441C214.4,440 215.5,439.3 216.7,439.3L266.4,439.3C267.6,439.3 268.6,439.9 269.2,441L283.4,467.7C283.9,468.7 283.9,469.8 283.3,470.8C282.6,471.7 281.6,472.3 280.5,472.3ZM207.6,466L275.3,466L264.4,445.6L218.5,445.6L207.6,466Z" style="fill-rule:nonzero;"/>
        </g>
        <g>
            <rect x="230.4" y="212.9" width="22.2" height="229.6" style="fill:rgb(241,242,242);"/>
            <path d="M252.6,445.6L230.4,445.6C228.7,445.6 227.3,444.2 227.3,442.5L227.3,212.9C227.3,211.2 228.7,209.8 230.4,209.8L252.6,209.8C254.3,209.8 255.7,211.2 255.7,212.9L255.7,442.5C255.7,444.2 254.3,445.6 252.6,445.6ZM233.5,439.3L249.5,439.3L249.5,216L233.5,216L233.5,439.3Z" style="fill-rule:nonzero;"/>
        </g>
        <g>
            <path d="M230.4,212.9L252.6,212.9L263.2,179.5L252.4,148.3L230.6,148.3L219.7,179.5L230.4,212.9Z" style="fill:white;fill-rule:nonzero;"/>
            <path d="M252.6,216L230.4,216C229,216 227.8,215.1 227.4,213.8L216.8,180.4C216.6,179.8 216.6,179.1 216.8,178.4L227.7,147.2C228.1,145.9 229.3,145.1 230.6,145.1L252.4,145.1C253.7,145.1 254.9,145.9 255.3,147.2L266.2,178.4C266.4,179 266.4,179.7 266.2,180.4L255.6,213.8C255.2,215.1 254,216 252.6,216ZM232.6,209.7L250.3,209.7L259.9,179.5L250.1,151.4L232.8,151.4L223,179.5L232.6,209.7Z" style="fill-rule:nonzero;"/>
        </g>
        <g>
            <path d="M788.3,523.9C788.3,529.1 784.1,533.3 778.9,533.3C773.7,533.3 769.5,529.1 769.5,523.9L769.5,332.4C769.5,327.2 773.7,323 778.9,323C784.1,323 788.3,327.2 788.3,332.4L788.3,523.9Z" style="fill:rgb(230,231,232);fill-rule:nonzero;"/>
        </g>
        <g>
            <path d="M997.5,533C997.5,536.9 994.4,540 990.5,540C986.6,540 983.5,536.9 983.5,533L983.5,389.7C983.5,385.8 986.6,382.7 990.5,382.7C994.4,382.7 997.5,385.8 997.5,389.7L997.5,533Z" style="fill:rgb(230,231,232);fill-rule:nonzero;"/>
        </g>
        <g>
            <path d="M1170.9,561.6C1170.9,564.8 1168.3,567.3 1165.2,567.3C1162,567.3 1159.5,564.7 1159.5,561.6L1159.5,444.3C1159.5,441.1 1162.1,438.6 1165.2,438.6C1168.4,438.6 1170.9,441.2 1170.9,444.3L1170.9,561.6Z" style="fill:rgb(230,231,232);fill-rule:nonzero;"/>
        </g>
        <g>
            <path d="M142.2,784.5C128.5,784.5 117.4,795.7 117.4,809.3L117.4,907.1C117.4,920.8 128.6,931.9 142.2,931.9L143.8,931.9L143.8,784.5L142.2,784.5Z" style="fill:rgb(128,130,133);fill-rule:nonzero;"/>
            <path d="M143.8,935.1L142.2,935.1C126.8,935.1 114.2,922.6 114.2,907.1L114.2,809.3C114.2,793.9 126.7,781.3 142.2,781.3L143.8,781.3C145.5,781.3 146.9,782.7 146.9,784.4L146.9,932C146.9,933.7 145.5,935.1 143.8,935.1ZM140.6,787.7C129.4,788.5 120.4,797.9 120.4,809.4L120.4,907.2C120.4,918.7 129.3,928.1 140.6,928.9L140.6,787.7Z" style="fill-rule:nonzero;"/>
        </g>
        <g>
            <path d="M1261.5,784.5L1260,784.5L1260,932L1261.5,932C1275.2,932 1286.3,920.8 1286.3,907.2L1286.3,809.4C1286.4,795.7 1275.2,784.5 1261.5,784.5Z" style="fill:rgb(128,130,133);fill-rule:nonzero;"/>
            <path d="M1261.5,935.1L1260,935.1C1258.3,935.1 1256.9,933.7 1256.9,932L1256.9,784.5C1256.9,782.8 1258.3,781.4 1260,781.4L1261.5,781.4C1276.9,781.4 1289.5,793.9 1289.5,809.4L1289.5,907.2C1289.5,922.5 1277,935.1 1261.5,935.1ZM1263.1,787.7L1263.1,928.8C1274.3,928 1283.2,918.6 1283.2,907.1L1283.2,809.3C1283.3,797.9 1274.4,788.5 1263.1,787.7Z" style="fill-rule:nonzero;"/>
        </g>
        <g>
            <g>
                <rect x="675.3" y="797.7" width="53.2" height="40.9" style="fill:rgb(203,243,255);"/>
                <path d="M728.5,841.7L675.3,841.7C673.6,841.7 672.2,840.3 672.2,838.6L672.2,797.7C672.2,796 673.6,794.6 675.3,794.6L728.5,794.6C730.2,794.6 731.6,796 731.6,797.7L731.6,838.6C731.6,840.3 730.2,841.7 728.5,841.7ZM678.4,835.4L725.3,835.4L725.3,800.8L678.4,800.8L678.4,835.4Z" style="fill-rule:nonzero;"/>
            </g>
            <g>
                <rect x="639" y="797.7" width="36.3" height="40.9" style="fill:rgb(203,243,255);"/>
                <path d="M675.3,841.7L639,841.7C637.3,841.7 635.9,840.3 635.9,838.6L635.9,797.7C635.9,796 637.3,794.6 639,794.6L675.3,794.6C677,794.6 678.4,796 678.4,797.7L678.4,838.6C678.4,840.3 677,841.7 675.3,841.7ZM642.1,835.4L672.1,835.4L672.1,800.8L642.1,800.8L642.1,835.4Z" style="fill-rule:nonzero;"/>
            </g>
            <g>
                <rect x="728.5" y="797.7" width="36.3" height="40.9" style="fill:rgb(203,243,255);"/>
                <path d="M764.8,841.7L728.5,841.7C726.8,841.7 725.4,840.3 725.4,838.6L725.4,797.7C725.4,796 726.8,794.6 728.5,794.6L764.8,794.6C766.5,794.6 767.9,796 767.9,797.7L767.9,838.6C767.9,840.3 766.5,841.7 764.8,841.7ZM731.6,835.4L761.6,835.4L761.6,800.8L731.6,800.8L731.6,835.4Z" style="fill-rule:nonzero;"/>
            </g>
        </g>
        <g>
            <g>
                <rect x="1059.8" y="838.5" width="30.3" height="39.4" style="fill:rgb(203,243,255);"/>
                <path d="M1090.1,881L1059.8,881C1058.1,881 1056.7,879.6 1056.7,877.9L1056.7,838.5C1056.7,836.8 1058.1,835.4 1059.8,835.4L1090.1,835.4C1091.8,835.4 1093.2,836.8 1093.2,838.5L1093.2,877.9C1093.2,879.6 1091.8,881 1090.1,881ZM1062.9,874.8L1086.9,874.8L1086.9,841.7L1062.9,841.7L1062.9,874.8Z" style="fill-rule:nonzero;"/>
            </g>
            <g>
                <rect x="1059.8" y="877.9" width="30.3" height="26.9" style="fill:rgb(203,243,255);"/>
                <path d="M1090.1,907.9L1059.8,907.9C1058.1,907.9 1056.7,906.5 1056.7,904.8L1056.7,877.9C1056.7,876.2 1058.1,874.8 1059.8,874.8L1090.1,874.8C1091.8,874.8 1093.2,876.2 1093.2,877.9L1093.2,904.8C1093.2,906.5 1091.8,907.9 1090.1,907.9ZM1062.9,901.7L1086.9,901.7L1086.9,881L1062.9,881L1062.9,901.7Z" style="fill-rule:nonzero;"/>
            </g>
            <g>
                <rect x="1059.8" y="811.7" width="30.3" height="26.9" style="fill:rgb(203,243,255);"/>
                <path d="M1090.1,841.7L1059.8,841.7C1058.1,841.7 1056.7,840.3 1056.7,838.6L1056.7,811.7C1056.7,810 1058.1,808.6 1059.8,808.6L1090.1,808.6C1091.8,808.6 1093.2,810 1093.2,811.7L1093.2,838.6C1093.2,840.3 1091.8,841.7 1090.1,841.7ZM1062.9,835.4L1086.9,835.4L1086.9,814.8L1062.9,814.8L1062.9,835.4Z" style="fill-rule:nonzero;"/>
            </g>
        </g>
        <g>
            <g>
                <rect x="313.7" y="838.5" width="30.3" height="39.4" style="fill:rgb(203,243,255);"/>
                <path d="M343.9,881L313.6,881C311.9,881 310.5,879.6 310.5,877.9L310.5,838.5C310.5,836.8 311.9,835.4 313.6,835.4L343.9,835.4C345.6,835.4 347,836.8 347,838.5L347,877.9C347.1,879.6 345.7,881 343.9,881ZM316.8,874.8L340.8,874.8L340.8,841.7L316.8,841.7L316.8,874.8Z" style="fill-rule:nonzero;"/>
            </g>
            <g>
                <rect x="313.7" y="877.9" width="30.3" height="26.9" style="fill:rgb(203,243,255);"/>
                <path d="M343.9,907.9L313.6,907.9C311.9,907.9 310.5,906.5 310.5,904.8L310.5,877.9C310.5,876.2 311.9,874.8 313.6,874.8L343.9,874.8C345.6,874.8 347,876.2 347,877.9L347,904.8C347.1,906.5 345.7,907.9 343.9,907.9ZM316.8,901.7L340.8,901.7L340.8,881L316.8,881L316.8,901.7Z" style="fill-rule:nonzero;"/>
            </g>
            <g>
                <rect x="313.7" y="811.7" width="30.3" height="26.9" style="fill:rgb(203,243,255);"/>
                <path d="M343.9,841.7L313.6,841.7C311.9,841.7 310.5,840.3 310.5,838.6L310.5,811.7C310.5,810 311.9,808.6 313.6,808.6L343.9,808.6C345.6,808.6 347,810 347,811.7L347,838.6C347.1,840.3 345.7,841.7 343.9,841.7ZM316.8,835.4L340.8,835.4L340.8,814.8L316.8,814.8L316.8,835.4Z" style="fill-rule:nonzero;"/>
            </g>
        </g>
        <g>
            <path d="M764.8,784.5L764.8,858.2L639,858.2L639,784.5L143.8,784.5L143.8,932L1260,932L1260,784.5L764.8,784.5ZM328.8,904.8C303.1,904.8 282.2,884 282.2,858.2C282.2,832.5 303.1,811.6 328.8,811.6C354.5,811.6 375.4,832.4 375.4,858.2C375.4,883.9 354.5,904.8 328.8,904.8ZM1074.9,904.8C1049.2,904.8 1028.3,884 1028.3,858.2C1028.3,832.5 1049.1,811.6 1074.9,811.6C1100.6,811.6 1121.5,832.4 1121.5,858.2C1121.5,883.9 1100.7,904.8 1074.9,904.8Z" style="fill:rgb(245,218,98);fill-rule:nonzero;"/>
            <path d="M1260,935.1L143.8,935.1C142.1,935.1 140.7,933.7 140.7,932L140.7,784.5C140.7,782.8 142.1,781.4 143.8,781.4L639,781.4C640.7,781.4 642.1,782.8 642.1,784.5L642.1,855.1L761.6,855.1L761.6,784.5C761.6,782.8 763,781.4 764.7,781.4L1260,781.4C1261.7,781.4 1263.1,782.8 1263.1,784.5L1263.1,932C1263.1,933.7 1261.7,935.1 1260,935.1ZM146.9,928.9L1256.9,928.9L1256.9,787.6L767.9,787.6L767.9,858.2C767.9,859.9 766.5,861.3 764.8,861.3L639,861.3C637.3,861.3 635.9,859.9 635.9,858.2L635.9,787.6L146.9,787.6L146.9,928.9ZM1074.9,907.9C1047.5,907.9 1025.2,885.6 1025.2,858.2C1025.2,830.8 1047.5,808.5 1074.9,808.5C1102.3,808.5 1124.6,830.8 1124.6,858.2C1124.6,885.6 1102.3,907.9 1074.9,907.9ZM1074.9,814.8C1050.9,814.8 1031.5,834.3 1031.5,858.3C1031.5,882.3 1051,901.7 1074.9,901.7C1098.9,901.7 1118.4,882.2 1118.4,858.3C1118.4,834.3 1098.9,814.8 1074.9,814.8ZM328.8,907.9C301.4,907.9 279.1,885.6 279.1,858.2C279.1,830.8 301.4,808.5 328.8,808.5C356.2,808.5 378.5,830.8 378.5,858.2C378.5,885.6 356.2,907.9 328.8,907.9ZM328.8,814.8C304.8,814.8 285.3,834.3 285.3,858.3C285.3,882.3 304.8,901.7 328.8,901.7C352.8,901.7 372.2,882.2 372.2,858.3C372.3,834.3 352.8,814.8 328.8,814.8Z" style="fill-rule:nonzero;"/>
        </g>
        <g>
            <path d="M468.4,861.4L375.3,861.4C373.6,861.4 372.2,860 372.2,858.3C372.2,856.6 373.6,855.2 375.3,855.2L468.4,855.2C470.1,855.2 471.5,856.6 471.5,858.3C471.6,860 470.2,861.4 468.4,861.4Z" style="fill-rule:nonzero;"/>
        </g>
        <g>
            <path d="M515.6,861.4L492,861.4C490.3,861.4 488.9,860 488.9,858.3C488.9,856.6 490.3,855.2 492,855.2L515.7,855.2C517.4,855.2 518.8,856.6 518.8,858.3C518.8,860 517.4,861.4 515.6,861.4Z" style="fill-rule:nonzero;"/>
        </g>
        <g>
            <path d="M979.8,903.9L412.4,903.9C410.7,903.9 409.3,902.5 409.3,900.8C409.3,899.1 410.7,897.7 412.4,897.7L979.8,897.7C981.5,897.7 982.9,899.1 982.9,900.8C982.9,902.5 981.5,903.9 979.8,903.9Z" style="fill-rule:nonzero;"/>
        </g>
        <g>
            <path d="M1175,861.4L1121.5,861.4C1119.8,861.4 1118.4,860 1118.4,858.3C1118.4,856.6 1119.8,855.2 1121.5,855.2L1175,855.2C1176.7,855.2 1178.1,856.6 1178.1,858.3C1178.1,860 1176.7,861.4 1175,861.4Z" style="fill-rule:nonzero;"/>
        </g>
        <g>
            <path d="M1025.1,861.4L990.5,861.4C988.8,861.4 987.4,860 987.4,858.3C987.4,856.6 988.8,855.2 990.5,855.2L1025.1,855.2C1026.8,855.2 1028.2,856.6 1028.2,858.3C1028.2,860 1026.8,861.4 1025.1,861.4Z" style="fill-rule:nonzero;"/>
        </g>
        <g>
            <path d="M232.7,861.4L185.9,861.4C184.2,861.4 182.8,860 182.8,858.3C182.8,856.6 184.2,855.2 185.9,855.2L232.7,855.2C234.4,855.2 235.8,856.6 235.8,858.3C235.8,860 234.4,861.4 232.7,861.4Z" style="fill-rule:nonzero;"/>
        </g>
        <g>
            <g>
                <path d="M121.2,1168.9C108.5,1169.8 106.1,1155.6 106.1,1155.6L97.7,1082.9L97.7,1063.8C97.7,1062.2 97.9,1048.2 103.5,1033.9C112.5,1010.9 131.1,997.8 155,997.8C158.5,997.9 176.4,999 193,1013.9L225.1,1032.8L225.2,1032.9C226.8,1033.4 230.9,1034.5 238.3,1034.5L914.3,1034.5C914.3,1034.5 941.6,1036.6 957.5,1029.7L973.4,1020.7C973.4,1020.7 985.3,1015.8 990.8,1023C990.8,1023 998.3,1031.7 983.3,1044.1L950.9,1068.1C950.9,1068.1 937.5,1080.7 920,1080.7L238.2,1080.7C216,1080.7 203.8,1074.8 197.9,1070.5L164.9,1051L162.9,1049.1C159.1,1045.4 155.1,1044.4 153.7,1044.1C144.4,1045.1 144,1063.7 144,1063.8L144,1074.8L135.9,1143.1C136.8,1168.3 121.2,1168.9 121.2,1168.9Z" style="fill:rgb(128,130,133);fill-rule:nonzero;"/>
                <path d="M120.1,1172.1C108.7,1172.1 104,1161.7 103.1,1156.1L94.7,1083.3L94.7,1063.9C94.7,1062.3 94.9,1047.7 100.7,1032.9C110.2,1008.7 130,994.8 155.1,994.8C158.8,994.9 177.8,996.1 195.2,1011.7L226.6,1030.2C228.1,1030.7 231.8,1031.5 238.3,1031.5L914.3,1031.5C914.6,1031.5 918.4,1031.8 924,1031.8C937.6,1031.8 949.1,1030.1 956.3,1026.9L971.9,1018.1C972.4,1017.9 976.8,1016.1 981.8,1016.1C986.8,1016.1 990.7,1017.9 993.3,1021.3C993.5,1021.5 996.2,1024.8 995.8,1030.3C995.3,1035.8 991.8,1041.4 985.3,1046.7L952.7,1070.8C952.4,1071.1 938.5,1084.1 920,1084.1L238.2,1084.1C215.7,1084.1 202.8,1078.2 196,1073.3L163.3,1054C163.1,1053.9 162.9,1053.7 162.7,1053.5L160.7,1051.6C157.9,1048.8 154.9,1047.9 153.6,1047.6C149,1048.6 147.2,1059.1 147.1,1064.1L147.1,1075L139,1143.7C140,1171.2 121.4,1172.2 121.3,1172.2C121,1172.1 120.5,1172.1 120.1,1172.1ZM154.9,1001C132.6,1001 114.9,1013.4 106.4,1035.2C101,1049 100.8,1062.4 100.8,1063.9L100.8,1083L109.2,1155.3C109.2,1155.6 111.1,1165.9 120,1165.9L120.9,1165.9C121.5,1165.9 133.5,1164.9 132.8,1143.4L140.9,1074.6L140.9,1064C140.9,1063.8 141,1042.5 153.4,1041.2L154.3,1041.2C156.1,1041.5 160.7,1042.7 165.1,1047L166.8,1048.7L199.5,1068C204.7,1071.8 216.3,1077.8 238.2,1077.8L919.9,1077.8C935.9,1077.8 948.5,1066.1 948.6,1066L981.3,1041.7C993.4,1031.7 988.5,1025.3 988.3,1025.1C986.8,1023.2 984.7,1022.3 981.7,1022.3C978,1022.3 974.6,1023.7 974.6,1023.7L959,1032.5C948.5,1037.1 934.2,1038 924,1038C918.1,1038 914,1037.7 914,1037.7L238.3,1037.7C230.5,1037.7 226.1,1036.6 224.2,1036C223.8,1035.9 223.4,1035.6 223.1,1035.3L191.5,1016.7C175.1,1002.2 158.2,1001 154.9,1001Z" style="fill-rule:nonzero;"/>
            </g>
            <g>
                <path d="M492,1065.2L232.7,1065.2C231,1065.2 229.6,1063.8 229.6,1062.1C229.6,1060.4 231,1059 232.7,1059L492,1059C493.7,1059 495.1,1060.4 495.1,1062.1C495.1,1063.8 493.7,1065.2 492,1065.2Z" style="fill-rule:nonzero;"/>
            </g>
            <g>
                <path d="M579,1065.2L515.6,1065.2C513.9,1065.2 512.5,1063.8 512.5,1062.1C512.5,1060.4 513.9,1059 515.6,1059L579,1059C580.7,1059 582.1,1060.4 582.1,1062.1C582.2,1063.8 580.8,1065.2 579,1065.2Z" style="fill-rule:nonzero;"/>
            </g>
            <g>
                <path d="M919.4,1065.2L878.8,1065.2C877.1,1065.2 875.7,1063.8 875.7,1062.1C875.7,1060.4 877.1,1059 878.8,1059L919.4,1059C921.1,1059 922.5,1060.4 922.5,1062.1C922.6,1063.8 921.2,1065.2 919.4,1065.2Z" style="fill-rule:nonzero;"/>
            </g>
        </g>
        <g>
            <g>
                <path d="M1029.7,1325.2L1080.8,1494.3L1131.8,1494.3L1131.8,1376.4L1112.5,1364.5L1112.5,1265.8L1029.7,1265.8L1029.7,1325.2Z" style="fill:rgb(210,211,212);fill-rule:nonzero;"/>
                <path d="M1131.8,1497.4L1080.8,1497.4C1079.4,1497.4 1078.2,1496.5 1077.8,1495.2L1026.8,1326.1C1026.7,1325.8 1026.7,1325.5 1026.7,1325.2L1026.7,1265.9C1026.7,1264.2 1028.1,1262.8 1029.8,1262.8L1112.5,1262.8C1114.2,1262.8 1115.6,1264.2 1115.6,1265.9L1115.6,1362.8L1133.4,1373.7C1134.3,1374.3 1134.9,1375.3 1134.9,1376.4L1134.9,1494.3C1134.9,1496 1133.5,1497.4 1131.8,1497.4ZM1083.1,1491.2L1128.7,1491.2L1128.7,1378.1L1110.9,1367.2C1110,1366.6 1109.4,1365.6 1109.4,1364.5L1109.4,1269L1032.9,1269L1032.9,1324.7L1083.1,1491.2Z" style="fill-rule:nonzero;"/>
            </g>
            <g>
                <path d="M1303.9,1325.2L1303.9,1145.7L1265.3,1145.7L1265.3,1047.8L1230.6,1047.8L1198.5,1145.7L1198.5,1176.8L1131.8,1176.8L1131.8,1202.4L925.9,1202.4L925.9,1176.8L489.8,1176.8L489.8,1265.8L1221.1,1265.8L1221.1,1364.5L1201.9,1376.4L1201.9,1494.3L1252.9,1494.3L1303.9,1325.2Z" style="fill:rgb(241,242,242);fill-rule:nonzero;"/>
                <path d="M1252.9,1497.4L1201.9,1497.4C1200.2,1497.4 1198.8,1496 1198.8,1494.3L1198.8,1376.4C1198.8,1375.3 1199.4,1374.3 1200.3,1373.7L1218.1,1362.8L1218.1,1269L489.8,1269C488.1,1269 486.7,1267.6 486.7,1265.9L486.7,1176.9C486.7,1175.2 488.1,1173.8 489.8,1173.8L925.9,1173.8C927.6,1173.8 929,1175.2 929,1176.9L929,1199.4L1128.6,1199.4L1128.6,1176.9C1128.6,1175.2 1130,1173.8 1131.7,1173.8L1195.3,1173.8L1195.3,1145.8C1195.3,1145.5 1195.4,1145.1 1195.5,1144.8L1227.6,1046.9C1228,1045.6 1229.2,1044.8 1230.6,1044.8L1265.3,1044.8C1267,1044.8 1268.4,1046.2 1268.4,1047.9L1268.4,1142.7L1303.9,1142.7C1305.6,1142.7 1307,1144.1 1307,1145.8L1307,1325.3C1307,1325.6 1307,1325.9 1306.9,1326.2L1255.9,1495.3C1255.5,1496.5 1254.3,1497.4 1252.9,1497.4ZM1204.9,1491.2L1250.6,1491.2L1300.8,1324.7L1300.8,1148.8L1265.3,1148.8C1263.6,1148.8 1262.2,1147.4 1262.2,1145.7L1262.2,1050.9L1232.9,1050.9L1201.7,1146.2L1201.7,1176.8C1201.7,1178.5 1200.3,1179.9 1198.6,1179.9L1135,1179.9L1135,1202.4C1135,1204.1 1133.6,1205.5 1131.9,1205.5L925.9,1205.5C924.2,1205.5 922.8,1204.1 922.8,1202.4L922.8,1180L492.9,1180L492.9,1262.8L1221.1,1262.8C1222.8,1262.8 1224.2,1264.2 1224.2,1265.9L1224.2,1364.6C1224.2,1365.7 1223.6,1366.7 1222.7,1367.3L1204.9,1378.2L1204.9,1491.2Z" style="fill-rule:nonzero;"/>
            </g>
            <g>
                <path d="M1131.8,1202.4L1131.8,1145.7L1099.7,1047.8L1065,1047.8L1065,1145.7L925.9,1145.7L925.9,1202.4L1131.8,1202.4Z" style="fill:white;fill-rule:nonzero;"/>
                <path d="M1131.8,1205.6L925.9,1205.6C924.2,1205.6 922.8,1204.2 922.8,1202.5L922.8,1145.8C922.8,1144.1 924.2,1142.7 925.9,1142.7L1061.9,1142.7L1061.9,1047.9C1061.9,1046.2 1063.3,1044.8 1065,1044.8L1099.7,1044.8C1101,1044.8 1102.2,1045.7 1102.7,1046.9L1134.8,1144.8C1134.9,1145.1 1135,1145.4 1135,1145.8L1135,1202.5C1134.9,1204.2 1133.5,1205.6 1131.8,1205.6ZM929.1,1199.3L1128.7,1199.3L1128.7,1146.2L1097.5,1050.9L1068.2,1050.9L1068.2,1145.7C1068.2,1147.4 1066.8,1148.8 1065.1,1148.8L929.1,1148.8L929.1,1199.3Z" style="fill-rule:nonzero;"/>
            </g>
            <g>
                <path d="M1198.1,1269C1196.4,1269 1195,1267.6 1195,1265.9L1195,1234.7C1195,1233 1196.4,1231.6 1198.1,1231.6C1199.8,1231.6 1201.2,1233 1201.2,1234.7L1201.2,1265.9C1201.3,1267.6 1199.9,1269 1198.1,1269Z" style="fill-rule:nonzero;"/>
            </g>
            <g>
                <path d="M1151.4,1269C1149.7,1269 1148.3,1267.6 1148.3,1265.9L1148.3,1234.7C1148.3,1233 1149.7,1231.6 1151.4,1231.6C1153.1,1231.6 1154.5,1233 1154.5,1234.7L1154.5,1265.9C1154.5,1267.6 1153.1,1269 1151.4,1269Z" style="fill-rule:nonzero;"/>
            </g>
            <g>
                <path d="M1104.7,1269C1103,1269 1101.6,1267.6 1101.6,1265.9L1101.6,1234.7C1101.6,1233 1103,1231.6 1104.7,1231.6C1106.4,1231.6 1107.8,1233 1107.8,1234.7L1107.8,1265.9C1107.8,1267.6 1106.4,1269 1104.7,1269Z" style="fill-rule:nonzero;"/>
            </g>
            <g>
                <path d="M1058,1269C1056.3,1269 1054.9,1267.6 1054.9,1265.9L1054.9,1234.7C1054.9,1233 1056.3,1231.6 1058,1231.6C1059.7,1231.6 1061.1,1233 1061.1,1234.7L1061.1,1265.9C1061.1,1267.6 1059.7,1269 1058,1269Z" style="fill-rule:nonzero;"/>
            </g>
            <g>
                <path d="M1011.2,1269C1009.5,1269 1008.1,1267.6 1008.1,1265.9L1008.1,1234.7C1008.1,1233 1009.5,1231.6 1011.2,1231.6C1012.9,1231.6 1014.3,1233 1014.3,1234.7L1014.3,1265.9C1014.4,1267.6 1013,1269 1011.2,1269Z" style="fill-rule:nonzero;"/>
            </g>
            <g>
                <path d="M964.5,1269C962.8,1269 961.4,1267.6 961.4,1265.9L961.4,1234.7C961.4,1233 962.8,1231.6 964.5,1231.6C966.2,1231.6 967.6,1233 967.6,1234.7L967.6,1265.9C967.6,1267.6 966.2,1269 964.5,1269Z" style="fill-rule:nonzero;"/>
            </g>
            <g>
                <path d="M917.8,1269C916.1,1269 914.7,1267.6 914.7,1265.9L914.7,1234.7C914.7,1233 916.1,1231.6 917.8,1231.6C919.5,1231.6 920.9,1233 920.9,1234.7L920.9,1265.9C920.9,1267.6 919.5,1269 917.8,1269Z" style="fill-rule:nonzero;"/>
            </g>
            <g>
                <path d="M871,1269C869.3,1269 867.9,1267.6 867.9,1265.9L867.9,1234.7C867.9,1233 869.3,1231.6 871,1231.6C872.7,1231.6 874.1,1233 874.1,1234.7L874.1,1265.9C874.2,1267.6 872.8,1269 871,1269Z" style="fill-rule:nonzero;"/>
            </g>
            <g>
                <path d="M824.3,1269C822.6,1269 821.2,1267.6 821.2,1265.9L821.2,1234.7C821.2,1233 822.6,1231.6 824.3,1231.6C826,1231.6 827.4,1233 827.4,1234.7L827.4,1265.9C827.4,1267.6 826,1269 824.3,1269Z" style="fill-rule:nonzero;"/>
            </g>
            <g>
                <path d="M709.3,1213L489.8,1213C488.1,1213 486.7,1211.6 486.7,1209.9C486.7,1208.2 488.1,1206.8 489.8,1206.8L709.3,1206.8C711,1206.8 712.4,1208.2 712.4,1209.9C712.4,1211.6 711.1,1213 709.3,1213Z" style="fill-rule:nonzero;"/>
            </g>
            <g>
                <path d="M655.9,1236.7L489.8,1236.7C488.1,1236.7 486.7,1235.3 486.7,1233.6C486.7,1231.9 488.1,1230.5 489.8,1230.5L655.9,1230.5C657.6,1230.5 659,1231.9 659,1233.6C659.1,1235.3 657.7,1236.7 655.9,1236.7Z" style="fill-rule:nonzero;"/>
            </g>
        </g>
        <g>
            <g>
                <g>
                    <path d="M626.7,1443.8L502.3,1443.8C501.1,1443.8 500,1443.1 499.5,1442C499,1440.9 499.1,1439.6 499.8,1438.7L513.1,1421.7C513.7,1420.9 514.6,1420.5 515.6,1420.5L613.7,1420.5C614.7,1420.5 615.7,1421 616.3,1421.9C620.2,1427.5 624.5,1433.1 629.1,1438.6C629.9,1439.5 630.1,1440.8 629.6,1441.9C629.1,1443.1 628,1443.8 626.7,1443.8ZM508.7,1437.6L620.1,1437.6C617.3,1434.1 614.6,1430.5 612.1,1426.9L517.1,1426.9L508.7,1437.6Z" style="fill-rule:nonzero;"/>
                </g>
                <g>
                    <path d="M589.1,1374.5L554.1,1374.5L515.6,1423.7L613.7,1423.7C600.1,1403.9 592.8,1386 589.1,1374.5Z" style="fill:rgb(210,211,212);fill-rule:nonzero;"/>
                    <path d="M613.7,1426.8L515.6,1426.8C514.4,1426.8 513.3,1426.1 512.8,1425C512.3,1423.9 512.4,1422.6 513.1,1421.7L551.6,1372.5C552.2,1371.7 553.1,1371.3 554.1,1371.3L589.1,1371.3C590.5,1371.3 591.7,1372.2 592.1,1373.5C595.7,1384.7 602.8,1402.2 616.3,1421.9C617,1422.9 617,1424.1 616.5,1425.1C615.9,1426.2 614.9,1426.8 613.7,1426.8ZM522,1420.6L607.9,1420.6C596.8,1403.5 590.4,1388.3 586.9,1377.7L555.7,1377.7L522,1420.6Z" style="fill-rule:nonzero;"/>
                </g>
                <g>
                    <path d="M937.7,1352.6L585.7,1361.3C585.7,1361.3 586.5,1366.3 589.2,1374.5C592.9,1386 600.2,1403.8 613.8,1423.7C617.6,1429.3 621.9,1434.9 626.8,1440.7C630.1,1444.6 633.5,1448.4 637.3,1452.3L937.7,1458.6C967,1458.6 990.7,1434.9 990.7,1405.6C990.6,1376.4 966.9,1352.6 937.7,1352.6Z" style="fill:rgb(245,218,98);fill-rule:nonzero;"/>
                    <path d="M937.7,1461.7C937.6,1461.7 637.2,1455.4 637.2,1455.4C636.4,1455.4 635.6,1455 635,1454.5C631.5,1451 628,1447.1 624.3,1442.7C619.5,1437.1 615.1,1431.3 611.1,1425.5C597.2,1405.2 589.8,1387.1 586.1,1375.5C583.4,1367.2 582.6,1362.1 582.5,1361.9C582.4,1361 582.6,1360.1 583.2,1359.4C583.8,1358.7 584.6,1358.3 585.5,1358.3L937.5,1349.6C968.5,1349.6 993.7,1374.8 993.7,1405.7C993.8,1436.5 968.6,1461.7 937.7,1461.7ZM638.6,1449.2L937.7,1455.4C965.2,1455.4 987.5,1433 987.5,1405.5C987.5,1378 965.1,1355.7 937.6,1355.7L589.4,1364.3C589.9,1366.5 590.8,1369.6 592,1373.5C595.6,1384.7 602.7,1402.2 616.2,1421.9C620.1,1427.5 624.4,1433.1 629,1438.6C632.4,1442.6 635.5,1446 638.6,1449.2Z" style="fill-rule:nonzero;"/>
                </g>
            </g>
            <g>
                <g>
                    <path d="M698.5,1405.6C698.5,1417.5 708.1,1427.1 720,1427.1C725.9,1427.1 731.3,1424.7 735.2,1420.8L704.9,1390.5C700.9,1394.3 698.5,1399.7 698.5,1405.6Z" style="fill:rgb(241,242,242);fill-rule:nonzero;"/>
                    <path d="M720,1430.2C706.4,1430.2 695.4,1419.2 695.4,1405.6C695.4,1399 698,1392.9 702.6,1388.2C703.8,1387 705.8,1387 707,1388.2L737.3,1418.5C738.5,1419.7 738.5,1421.7 737.3,1422.9C732.7,1427.6 726.6,1430.2 720,1430.2ZM705,1395C702.8,1398.1 701.7,1401.7 701.7,1405.6C701.7,1415.7 709.9,1423.9 720,1423.9C723.8,1423.9 727.5,1422.7 730.6,1420.6L705,1395Z" style="fill-rule:nonzero;"/>
                </g>
                <g>
                    <path d="M720,1384.2C714.1,1384.2 708.7,1386.6 704.8,1390.5L735.1,1420.8C739,1416.9 741.4,1411.6 741.4,1405.6C741.4,1393.8 731.8,1384.2 720,1384.2Z" style="fill:rgb(241,242,242);fill-rule:nonzero;"/>
                    <path d="M735.1,1423.9C734.3,1423.9 733.5,1423.6 732.9,1423L702.6,1392.7C701.4,1391.5 701.4,1389.5 702.6,1388.3C707.2,1383.7 713.4,1381.1 720,1381.1C733.6,1381.1 744.6,1392.1 744.6,1405.7C744.6,1412.3 742,1418.4 737.4,1423.1C736.7,1423.6 735.9,1423.9 735.1,1423.9ZM709.4,1390.6L735,1416.2C737.2,1413.1 738.3,1409.5 738.3,1405.6C738.3,1395.5 730.1,1387.3 720,1387.3C716.1,1387.3 712.5,1388.5 709.4,1390.6Z" style="fill-rule:nonzero;"/>
                </g>
            </g>
            <g>
                <path d="M963.1,1405.6C963.1,1414 956.3,1420.8 947.9,1420.8C939.5,1420.8 932.7,1414 932.7,1405.6C932.7,1397.2 939.5,1390.4 947.9,1390.4C956.3,1390.4 963.1,1397.2 963.1,1405.6Z" style="fill:white;fill-rule:nonzero;"/>
                <path d="M947.9,1423.9C937.8,1423.9 929.6,1415.7 929.6,1405.6C929.6,1395.5 937.8,1387.3 947.9,1387.3C958,1387.3 966.2,1395.5 966.2,1405.6C966.2,1415.7 958,1423.9 947.9,1423.9ZM947.9,1393.6C941.3,1393.6 935.9,1399 935.9,1405.6C935.9,1412.2 941.3,1417.7 947.9,1417.7C954.5,1417.7 959.9,1412.3 959.9,1405.6C960,1399 954.6,1393.6 947.9,1393.6Z" style="fill-rule:nonzero;"/>
            </g>
        </g>
        <g>
            <g>
                <path d="M205.2,1436.3C174.4,1424.7 150.4,1399 140.9,1367.5L140,1364.6L100.5,1364.6L100.5,1426.2C100.5,1455.3 124.2,1479 153.3,1479L207.8,1479L207.8,1437.3L205.2,1436.3Z" style="fill:rgb(128,130,133);fill-rule:nonzero;"/>
                <path d="M207.8,1482L153.3,1482C122.5,1482 97.4,1456.9 97.4,1426.1L97.4,1364.5C97.4,1362.8 98.8,1361.4 100.5,1361.4L140,1361.4C141.4,1361.4 142.6,1362.3 143,1363.6L143.9,1366.5C153.1,1397 176.4,1422 206.3,1433.3L208.9,1434.3C210.1,1434.8 210.9,1435.9 210.9,1437.2L210.9,1478.9C210.9,1480.7 209.5,1482 207.8,1482ZM103.7,1367.6L103.7,1426.1C103.7,1453.5 126,1475.7 153.3,1475.7L204.7,1475.7L204.7,1439.3L204.1,1439.1C172.4,1427.1 147.7,1400.7 138,1368.3L137.8,1367.6L103.7,1367.6Z" style="fill-rule:nonzero;"/>
            </g>
            <g>
                <g>
                    <path d="M389,1310.6L381.2,1259.5C380.7,1249.9 375.3,1243.8 375.3,1243.8L356.7,1223.2C350.3,1215.2 337.2,1218.4 337.2,1218.4L320.7,1223.1C353.9,1245.9 376.6,1282.8 380.2,1325.1L386.5,1319C390.1,1315.1 389,1310.6 389,1310.6Z" style="fill:rgb(128,130,133);fill-rule:nonzero;"/>
                    <path d="M380.2,1328.1C379.8,1328.1 379.5,1328 379.1,1327.9C378,1327.5 377.2,1326.4 377.1,1325.2C373.7,1284.9 352.5,1248.5 319,1225.5C318,1224.8 317.5,1223.6 317.7,1222.4C317.9,1221.2 318.8,1220.2 319.9,1219.9L336.4,1215.2C336.6,1215.1 339.4,1214.5 343.2,1214.5C350.2,1214.5 355.7,1216.8 359.2,1221.1L377.7,1241.6C378,1241.9 383.9,1248.6 384.4,1259.3L392.2,1310.1C392.7,1312.1 392.6,1317 388.8,1321L382.4,1327.2C381.7,1327.8 380.9,1328.1 380.2,1328.1ZM327.8,1224.2C358.1,1247.1 377.7,1280.8 382.6,1318.3L384.3,1316.6C386.6,1314.2 386,1311.4 386,1311.3L378.2,1260C377.7,1251.3 373.1,1245.9 373,1245.9L354.4,1225.3C348.9,1218.6 338,1221.4 338,1221.4L327.8,1224.2Z" style="fill-rule:nonzero;"/>
                </g>
                <g>
                    <path d="M380.2,1325C376.6,1282.7 353.9,1245.8 320.7,1223C298.5,1207.8 271.6,1198.8 242.7,1198.8C166.5,1198.8 104.7,1260.6 104.7,1336.8L104.7,1364.6L140.1,1364.6L141,1367.5C150.5,1399 174.5,1424.7 205.3,1436.3L207.9,1437.3L207.9,1474.9L332,1474.9C358.9,1474.9 380.7,1453.1 380.7,1426.2L380.7,1336.9C380.7,1332.8 380.5,1328.9 380.2,1325Z" style="fill:rgb(255,125,109);fill-rule:nonzero;"/>
                    <path d="M332,1478L207.8,1478C206.1,1478 204.7,1476.6 204.7,1474.9L204.7,1439.4L204.1,1439.2C172.4,1427.2 147.7,1400.8 138,1368.4L137.8,1367.7L104.7,1367.7C103,1367.7 101.6,1366.3 101.6,1364.6L101.6,1336.8C101.6,1259 164.9,1195.6 242.8,1195.6C271.5,1195.6 299,1204.2 322.6,1220.3C357.6,1244.4 379.8,1282.4 383.4,1324.6C383.8,1328.9 384,1332.9 384,1336.7L384,1426C383.8,1454.7 360.6,1478 332,1478ZM210.9,1471.8L331.9,1471.8C357,1471.8 377.5,1451.3 377.5,1426.2L377.5,1336.9C377.5,1333.3 377.3,1329.5 377,1325.3C373.6,1285 352.4,1248.6 318.9,1225.6C296.4,1210.1 270,1202 242.6,1202C168.2,1202 107.7,1262.5 107.7,1336.9L107.7,1361.5L140,1361.5C141.4,1361.5 142.6,1362.4 143,1363.7L143.9,1366.6C153.1,1397.1 176.4,1422.1 206.3,1433.4L208.9,1434.4C210.1,1434.9 210.9,1436 210.9,1437.3L210.9,1471.8Z" style="fill-rule:nonzero;"/>
                </g>
            </g>
            <g>
                <path d="M233.4,1481C233.4,1483.7 231.2,1485.8 228.6,1485.8L223.6,1485.8C220.9,1485.8 218.8,1483.6 218.8,1481L218.8,1468.8C218.8,1466.1 221,1464 223.6,1464L228.6,1464C231.3,1464 233.4,1466.2 233.4,1468.8L233.4,1481Z" style="fill:rgb(128,130,133);fill-rule:nonzero;"/>
                <path d="M228.6,1488.9L223.6,1488.9C219.2,1488.9 215.7,1485.3 215.7,1481L215.7,1468.8C215.7,1464.4 219.3,1460.8 223.6,1460.8L228.6,1460.8C233,1460.8 236.5,1464.4 236.5,1468.8L236.5,1481C236.5,1485.3 233,1488.9 228.6,1488.9ZM223.6,1467.1C222.7,1467.1 221.9,1467.9 221.9,1468.8L221.9,1481C221.9,1481.9 222.7,1482.7 223.6,1482.7L228.6,1482.7C229.5,1482.7 230.3,1481.9 230.3,1481L230.3,1468.8C230.3,1467.9 229.5,1467.1 228.6,1467.1L223.6,1467.1Z" style="fill-rule:nonzero;"/>
            </g>
            <g>
                <path d="M263.8,1481C263.8,1483.7 261.6,1485.8 259,1485.8L254,1485.8C251.3,1485.8 249.2,1483.6 249.2,1481L249.2,1468.8C249.2,1466.1 251.4,1464 254,1464L259,1464C261.7,1464 263.8,1466.2 263.8,1468.8L263.8,1481Z" style="fill:rgb(128,130,133);fill-rule:nonzero;"/>
                <path d="M259,1488.9L254,1488.9C249.6,1488.9 246.1,1485.3 246.1,1481L246.1,1468.8C246.1,1464.4 249.7,1460.8 254,1460.8L259,1460.8C263.4,1460.8 266.9,1464.4 266.9,1468.8L266.9,1481C266.9,1485.3 263.4,1488.9 259,1488.9ZM254,1467.1C253.1,1467.1 252.3,1467.9 252.3,1468.8L252.3,1481C252.3,1481.9 253.1,1482.7 254,1482.7L259,1482.7C259.9,1482.7 260.7,1481.9 260.7,1481L260.7,1468.8C260.7,1467.9 259.9,1467.1 259,1467.1L254,1467.1Z" style="fill-rule:nonzero;"/>
            </g>
            <g>
                <path d="M294.2,1481C294.2,1483.7 292,1485.8 289.4,1485.8L284.4,1485.8C281.7,1485.8 279.6,1483.6 279.6,1481L279.6,1468.8C279.6,1466.1 281.8,1464 284.4,1464L289.4,1464C292.1,1464 294.2,1466.2 294.2,1468.8L294.2,1481Z" style="fill:rgb(128,130,133);fill-rule:nonzero;"/>
                <path d="M289.4,1488.9L284.4,1488.9C280,1488.9 276.5,1485.3 276.5,1481L276.5,1468.8C276.5,1464.4 280.1,1460.8 284.4,1460.8L289.4,1460.8C293.8,1460.8 297.3,1464.4 297.3,1468.8L297.3,1481C297.3,1485.3 293.8,1488.9 289.4,1488.9ZM284.4,1467.1C283.5,1467.1 282.7,1467.9 282.7,1468.8L282.7,1481C282.7,1481.9 283.5,1482.7 284.4,1482.7L289.4,1482.7C290.3,1482.7 291.1,1481.9 291.1,1481L291.1,1468.8C291.1,1467.9 290.3,1467.1 289.4,1467.1L284.4,1467.1Z" style="fill-rule:nonzero;"/>
            </g>
            <g>
                <path d="M324.6,1481C324.6,1483.7 322.5,1485.8 319.8,1485.8L314.8,1485.8C312.1,1485.8 310,1483.6 310,1481L310,1468.8C310,1466.1 312.2,1464 314.8,1464L319.8,1464C322.5,1464 324.6,1466.2 324.6,1468.8L324.6,1481Z" style="fill:rgb(128,130,133);fill-rule:nonzero;"/>
                <path d="M319.8,1488.9L314.8,1488.9C310.4,1488.9 306.9,1485.3 306.9,1481L306.9,1468.8C306.9,1464.4 310.5,1460.8 314.8,1460.8L319.8,1460.8C324.2,1460.8 327.7,1464.4 327.7,1468.8L327.7,1481C327.7,1485.3 324.2,1488.9 319.8,1488.9ZM314.8,1467.1C313.9,1467.1 313.1,1467.9 313.1,1468.8L313.1,1481C313.1,1481.9 313.9,1482.7 314.8,1482.7L319.8,1482.7C320.7,1482.7 321.5,1481.9 321.5,1481L321.5,1468.8C321.5,1467.9 320.7,1467.1 319.8,1467.1L314.8,1467.1Z" style="fill-rule:nonzero;"/>
            </g>
            <g>
                <path d="M440.9,1441.9L379,1441.9C377.3,1441.9 375.9,1440.5 375.9,1438.8C375.9,1437.1 377.3,1435.7 379,1435.7L440.9,1435.7C442.6,1435.7 444,1437.1 444,1438.8C444,1440.5 442.6,1441.9 440.9,1441.9Z" style="fill-rule:nonzero;"/>
            </g>
            <g>
                <g>
                    <path d="M455.1,1479.4L451.7,1450.6C450.6,1444.6 441.1,1444.8 440.9,1444.8L395.3,1444.8C391.9,1444.8 389.2,1442.1 389.2,1438.7C389.2,1435.3 391.9,1432.6 395.3,1432.6L441,1432.6C446.1,1432.6 455.1,1434.7 455.9,1449.5L455.9,1479.3C455.6,1479.4 455.3,1479.4 455.1,1479.4Z" style="fill:rgb(128,130,133);fill-rule:nonzero;"/>
                </g>
            </g>
            <g>
                <path d="M415.4,1432.3C415.4,1430.2 413.7,1428.5 411.6,1428.5L403.5,1428.5C401.4,1428.5 399.7,1430.2 399.7,1432.3C399.7,1434.4 401.4,1436.1 403.5,1436.1L411.6,1436.1C413.7,1436.1 415.4,1434.4 415.4,1432.3Z" style="fill:rgb(128,130,133);fill-rule:nonzero;"/>
            </g>
            <g>
                <path d="M439.9,1432.3C439.9,1430.2 438.2,1428.5 436.1,1428.5L428,1428.5C425.9,1428.5 424.2,1430.2 424.2,1432.3C424.2,1434.4 425.9,1436.1 428,1436.1L436.1,1436.1C438.2,1436.1 439.9,1434.4 439.9,1432.3Z" style="fill:rgb(128,130,133);fill-rule:nonzero;"/>
            </g>
            <g>
                <path d="M242.7,1267.8C204.6,1267.8 173.7,1298.7 173.7,1336.8C173.7,1374.9 204.6,1405.8 242.7,1405.8C280.8,1405.8 311.7,1374.9 311.7,1336.8C311.7,1298.7 280.8,1267.8 242.7,1267.8Z" style="fill:rgb(241,242,242);fill-rule:nonzero;"/>
                <path d="M242.7,1409C202.9,1409 170.6,1376.6 170.6,1336.9C170.6,1297.1 203,1264.8 242.7,1264.8C282.5,1264.8 314.8,1297.2 314.8,1336.9C314.8,1376.6 282.4,1409 242.7,1409ZM242.7,1270.9C206.4,1270.9 176.8,1300.5 176.8,1336.8C176.8,1373.1 206.4,1402.7 242.7,1402.7C279,1402.7 308.6,1373.1 308.6,1336.8C308.6,1300.5 279,1270.9 242.7,1270.9Z" style="fill-rule:nonzero;"/>
            </g>
            <g>
                <path d="M353.3,1421.8C353.3,1435.6 342.1,1446.8 328.3,1446.8C314.5,1446.8 303.3,1435.6 303.3,1421.8C303.3,1408 314.5,1396.8 328.3,1396.8C342.1,1396.8 353.3,1407.9 353.3,1421.8Z" style="fill:rgb(128,130,133);fill-rule:nonzero;"/>
                <path d="M328.3,1449.9C312.8,1449.9 300.1,1437.3 300.1,1421.7C300.1,1406.2 312.7,1393.5 328.3,1393.5C343.9,1393.5 356.5,1406.1 356.5,1421.7C356.4,1437.3 343.8,1449.9 328.3,1449.9ZM328.3,1399.8C316.2,1399.8 306.4,1409.6 306.4,1421.7C306.4,1433.8 316.2,1443.6 328.3,1443.6C340.4,1443.6 350.2,1433.8 350.2,1421.7C350.2,1409.7 340.3,1399.8 328.3,1399.8Z" style="fill-rule:nonzero;"/>
            </g>
        </g>
    </g>
</svg>
